<?xml version="1.0" encoding="utf8"?>
<svg id="Sphere_wireframe_15deg_3r"
   baseProfile="full" version="1.1"
   xmlns="http://www.w3.org/2000/svg"
   xmlns:xlink="http://www.w3.org/1999/xlink"
   width="800" height="800">

  <title>Sphere wireframe</title>

  <desc>
     Sphere wireframe

     viewer distance from center: 3r
     line distancd: 15째
     line width: 2째
     axial tilt: 37.5째
     rotation: 11.25째
     base color: #22326b

     plotted with several adapted cubic bezier-curves
     The plotcurves were calculated by some fancy python code. The bezier-curve
     controlpoints are placed on tangents of the function-curve. They are
     furthermore positioned in a way to minimize the average quadratic distance
     between the bezier-curve and the function. This gives an accuracy, so that
     the deviation is in no point greater than 0.00001.

     about: http://commons.wikimedia.org/wiki/Image:Sphere_wireframe_15deg_3r.svg
     source: http://commons.wikimedia.org/
     rights: GNU Free Documentation license,
             Creative Commons Attribution ShareAlike license
  </desc>

  <defs>
    <radialGradient cx="-0.1" cy="0.1" r="1.2" fx="-0.3" fy="0.6" id="LightSpot_front" gradientUnits="userSpaceOnUse">
      <stop style="stop-color:#b6bbce; stop-opacity:1" offset="0" />
      <stop style="stop-color:#8a94ba; stop-opacity:1" offset="0.1" />
      <stop style="stop-color:#5f6c99; stop-opacity:1" offset="0.3" />
      <stop style="stop-color:#22326b; stop-opacity:1" offset="1" />
    </radialGradient>

    <radialGradient cx="0.1" cy="-0.1" r="1.2" fx="0.3" fy="-0.6" id="LightSpot_back" gradientUnits="userSpaceOnUse">
      <stop style="stop-color:#b6bbce; stop-opacity:1" offset="0" />
      <stop style="stop-color:#8a94ba; stop-opacity:1" offset="0.1" />
      <stop style="stop-color:#5f6c99; stop-opacity:1" offset="0.3" />
      <stop style="stop-color:#22326b; stop-opacity:1" offset="1" />
    </radialGradient>
  </defs>

  <g id="sphere" style="fill:#334070; stroke:none" transform="translate(400, 400) scale(400, -400)">
    <g id="back" style="opacity:0.2; fill:url(#LightSpot_back)">
      <path d="M 0.01223,-0.46000
C 0.08290,-0.46341 0.14582,-0.49606 0.17717,-0.54554
C 0.20786,-0.59399 0.20375,-0.65145 0.16635,-0.69694
C 0.12751,-0.74417 0.05880,-0.77121 -0.01301,-0.76752
C -0.08402,-0.76387 -0.14703,-0.73071 -0.17796,-0.68075
C -0.20809,-0.63207 -0.20330,-0.57461 -0.16532,-0.52938
C -0.12643,-0.48307 -0.05864,-0.45657 0.01223,-0.46000 Z
M 0.01302,-0.44842
C -0.06273,-0.44477 -0.13516,-0.47310 -0.17669,-0.52257
C -0.21726,-0.57092 -0.22231,-0.63231 -0.19002,-0.68429
C -0.15692,-0.73757 -0.08962,-0.77290 -0.01381,-0.77677
C 0.06288,-0.78068 0.13625,-0.75181 0.17772,-0.70141
C 0.21769,-0.65283 0.22207,-0.59148 0.18927,-0.53974
C 0.15577,-0.48691 0.08853,-0.45205 0.01302,-0.44842 Z" id="parallel_-75.0_back"/>
      <path d="M 0.02324,-0.28241
C 0.14379,-0.28785 0.25458,-0.33517 0.32425,-0.41097
C 0.39241,-0.48513 0.41407,-0.57878 0.38335,-0.66644
C 0.35160,-0.75705 0.26737,-0.83139 0.15501,-0.86802
C 0.04184,-0.90491 -0.08718,-0.89942 -0.19436,-0.85317
C -0.30084,-0.80722 -0.37388,-0.72615 -0.39241,-0.63339
C -0.41039,-0.54340 -0.37516,-0.45192 -0.29631,-0.38395
C -0.21557,-0.31436 -0.09786,-0.27696 0.02324,-0.28241 Z
M 0.02391,-0.27033
C -0.10125,-0.26472 -0.22288,-0.30339 -0.30623,-0.37527
C -0.38760,-0.44544 -0.42387,-0.53985 -0.40516,-0.63267
C -0.38592,-0.72808 -0.31068,-0.81146 -0.20104,-0.85881
C -0.09040,-0.90660 0.04288,-0.91235 0.15980,-0.87436
C 0.27594,-0.83663 0.36301,-0.75994 0.39585,-0.66646
C 0.42760,-0.57606 0.40527,-0.47947 0.33490,-0.40298
C 0.26294,-0.32475 0.14847,-0.27592 0.02391,-0.27033 Z" id="parallel_-60.0_back"/>
      <path d="M 0.03250,-0.09933
C 0.21258,-0.10684 0.37798,-0.17619 0.48073,-0.28723
C 0.58046,-0.39501 0.61054,-0.53059 0.56276,-0.65674
C 0.51447,-0.78422 0.39177,-0.88854 0.22896,-0.94043
C 0.06307,-0.99331 -0.12611,-0.98590 -0.28374,-0.92039
C -0.43708,-0.85666 -0.54416,-0.74474 -0.57554,-0.61551
C -0.60698,-0.48605 -0.55914,-0.35280 -0.44518,-0.25263
C -0.32666,-0.14845 -0.14994,-0.09172 0.03250,-0.09933 Z
M 0.03306,-0.08702
C -0.15141,-0.07937 -0.33022,-0.13603 -0.45117,-0.24043
C -0.56691,-0.34033 -0.61748,-0.47347 -0.58927,-0.60394
C -0.56059,-0.73658 -0.45350,-0.85256 -0.29766,-0.91960
C -0.13842,-0.98810 0.05418,-0.99796 0.22445,-0.94630
C 0.39178,-0.89552 0.51934,-0.79083 0.57147,-0.66164
C 0.62352,-0.53264 0.59486,-0.39294 0.49347,-0.28155
C 0.38890,-0.16666 0.21868,-0.09472 0.03306,-0.08702 Z" id="parallel_-45.0_back"/>
      <path d="M -0.31275,-0.94984
C -0.49298,-0.89049 -0.63350,-0.78231 -0.70379,-0.64875
C -0.77168,-0.51976 -0.76885,-0.37696 -0.69590,-0.24943
C -0.62029,-0.11726 -0.47536,-0.01192 -0.29260,0.04366
C -0.10552,0.10056 0.10552,0.10056 0.29260,0.04366
C 0.47536,-0.01192 0.62029,-0.11726 0.69590,-0.24943
C 0.76885,-0.37696 0.77168,-0.51976 0.70379,-0.64875
C 0.63350,-0.78231 0.49297,-0.89049 0.31275,-0.94984
C 0.33153,-0.94365 0.35012,-0.93691 0.36850,-0.92963
C 0.56913,-0.85010 0.70936,-0.70999 0.75051,-0.54809
C 0.79038,-0.39122 0.73322,-0.22961 0.59389,-0.10544
C 0.44908,0.02360 0.23073,0.09865 -0.00000,0.09865
C -0.23074,0.09865 -0.44908,0.02360 -0.59389,-0.10545
C -0.73322,-0.22961 -0.79038,-0.39122 -0.75051,-0.54809
C -0.70936,-0.70999 -0.56913,-0.85010 -0.36850,-0.92963
C -0.35012,-0.93691 -0.33153,-0.94365 -0.31275,-0.94984 Z" id="parallel_-30.0_back"/>
      <path d="M -0.77775,-0.62857
C -0.89697,-0.48106 -0.92078,-0.30634 -0.84348,-0.14638
C -0.76618,0.01357 -0.59475,0.14439 -0.37029,0.21463
C -0.13522,0.28818 0.13521,0.28818 0.37028,0.21463
C 0.59474,0.14439 0.76618,0.01357 0.84348,-0.14638
C 0.92078,-0.30634 0.89697,-0.48106 0.77775,-0.62857
C 0.78376,-0.62114 0.78965,-0.61363 0.79544,-0.60603
C 0.90808,-0.45819 0.92659,-0.28545 0.84669,-0.12809
C 0.76630,0.03023 0.59331,0.15909 0.36847,0.22802
C 0.13422,0.29984 -0.13421,0.29984 -0.36846,0.22803
C -0.59331,0.15909 -0.76630,0.03023 -0.84669,-0.12809
C -0.92659,-0.28545 -0.90808,-0.45819 -0.79544,-0.60603
C -0.78965,-0.61363 -0.78376,-0.62114 -0.77775,-0.62857 Z" id="parallel_-15.0_back"/>
      <path d="M -0.95913,-0.28296
C -1.00081,-0.14169 -0.96336,0.00438 -0.85322,0.13007
C -0.74146,0.25761 -0.56199,0.35601 -0.34658,0.40783
C -0.12332,0.46153 0.12333,0.46153 0.34659,0.40782
C 0.56199,0.35601 0.74146,0.25760 0.85322,0.13007
C 0.96336,0.00438 1.00081,-0.14169 0.95913,-0.28296
C 0.96142,-0.27521 0.96361,-0.26743 0.96571,-0.25962
C 1.00334,-0.11964 0.96306,0.02424 0.85164,0.14770
C 0.73850,0.27307 0.55910,0.36953 0.34464,0.42028
C 0.12247,0.47284 -0.12248,0.47284 -0.34464,0.42028
C -0.55910,0.36953 -0.73851,0.27307 -0.85164,0.14770
C -0.96306,0.02424 -1.00334,-0.11964 -0.96571,-0.25962
C -0.96362,-0.26740 -0.96143,-0.27517 -0.95913,-0.28296 Z" id="parallel_0.0_back"/>
      <path d="M -0.99799,0.06345
C -0.98873,0.20905 -0.88345,0.34722 -0.70344,0.44989
C -0.51542,0.55712 -0.26093,0.61704 0.00399,0.61643
C 0.26617,0.61583 0.51746,0.55599 0.70355,0.44982
C 0.88349,0.34716 0.98873,0.20902 0.99799,0.06345
C 0.99750,0.07112 0.99693,0.07863 0.99630,0.08599
C 0.98393,0.22927 0.87718,0.36464 0.69735,0.46496
C 0.51000,0.56947 0.25807,0.62774 -0.00397,0.62715
C -0.26331,0.62656 -0.51208,0.56836 -0.69750,0.46487
C -0.87724,0.36456 -0.98393,0.22923 -0.99630,0.08599
C -0.99696,0.07834 -0.99752,0.07082 -0.99799,0.06345 Z" id="parallel_15.0_back"/>
      <path d="M -0.92206,0.38705
C -0.87783,0.49241 -0.76574,0.58719 -0.60365,0.65620
C -0.43420,0.72834 -0.22061,0.76785 -0.00005,0.76785
C 0.22060,0.76786 0.43427,0.72833 0.60376,0.65615
C 0.76579,0.58714 0.87784,0.49239 0.92206,0.38705
C 0.91927,0.39368 0.91636,0.40042 0.91332,0.40725
C 0.86751,0.50997 0.75554,0.60207 0.59500,0.66902
C 0.42741,0.73890 0.21710,0.77711 0.00005,0.77712
C -0.21708,0.77713 -0.42748,0.73889 -0.59511,0.66897
C -0.75560,0.60203 -0.86752,0.50995 -0.91332,0.40725
C -0.91625,0.40068 -0.91917,0.39394 -0.92206,0.38705 Z" id="parallel_30.0_back"/>
      <path d="M -0.74615,0.66578
C -0.66702,0.75446 -0.51252,0.82546 -0.31657,0.86311
C -0.11423,0.90199 0.11486,0.90195 0.31714,0.86300
C 0.51283,0.82532 0.66710,0.75437 0.74615,0.66578
C 0.74129,0.67123 0.73627,0.67673 0.73109,0.68228
C 0.65152,0.76754 0.49967,0.83552 0.30824,0.87148
C 0.11099,0.90855 -0.11167,0.90850 -0.30886,0.87137
C -0.50000,0.83537 -0.65161,0.76744 -0.73109,0.68228
C -0.73627,0.67673 -0.74129,0.67123 -0.74615,0.66578 Z" id="parallel_45.0_back"/>
      <path d="M -0.47377,0.88065
C -0.36276,0.94037 -0.18613,0.97561 0.00160,0.97540
C 0.18818,0.97520 0.36341,0.94002 0.47377,0.88065
C 0.46637,0.88463 0.45891,0.88852 0.45141,0.89232
C 0.34300,0.94716 0.17572,0.97923 -0.00143,0.97905
C -0.17755,0.97888 -0.34360,0.94686 -0.45141,0.89232
C -0.45891,0.88852 -0.46636,0.88463 -0.47377,0.88065 Z" id="parallel_60.0_back"/>
      <path d="M -0.06747,-0.99772
C -0.04677,-0.99912 -0.02002,-0.81009 0.00269,-0.50192
C 0.02550,-0.19242 0.04076,0.19011 0.04267,0.50039
C 0.04458,0.80923 0.03298,0.99967 0.01224,0.99993
C 0.01852,0.99985 0.02470,0.99971 0.03077,0.99953
C 0.04934,0.99895 0.05888,0.80768 0.05581,0.49795
C 0.05275,0.18841 0.03754,-0.19257 0.01593,-0.50127
C -0.00568,-0.81000 -0.03042,-0.99971 -0.04896,-0.99880
C -0.05503,-0.99850 -0.06120,-0.99814 -0.06747,-0.99772 Z" id="meridian_75.0_back"/>
      <path d="M -0.30199,-0.95331
C -0.23461,-0.97465 -0.14875,-0.89697 -0.06256,-0.73643
C 0.03044,-0.56321 0.11558,-0.30890 0.17207,-0.03556
C 0.22855,0.23778 0.25119,0.50500 0.23446,0.70091
C 0.21896,0.88246 0.17092,0.98782 0.10061,0.99493
C 0.10688,0.99429 0.11325,0.99359 0.11972,0.99281
C 0.18821,0.98455 0.23442,0.87855 0.24854,0.69687
C 0.26377,0.50105 0.24039,0.23457 0.18405,-0.03806
C 0.12771,-0.31068 0.04355,-0.56459 -0.04804,-0.73832
C -0.13302,-0.89951 -0.21746,-0.97850 -0.28360,-0.95894
C -0.28985,-0.95709 -0.29598,-0.95521 -0.30199,-0.95331 Z" id="meridian_75.0_back"/>
      <path d="M -0.54072,-0.84120
C -0.43614,-0.90842 -0.29218,-0.87669 -0.14106,-0.75298
C 0.02432,-0.61760 0.18235,-0.38512 0.29119,-0.11708
C 0.39970,0.15013 0.44843,0.42590 0.42460,0.63762
C 0.40275,0.83171 0.32181,0.95493 0.19999,0.97980
C 0.20695,0.97838 0.21378,0.97691 0.22047,0.97539
C 0.33965,0.94846 0.41798,0.82444 0.43805,0.63068
C 0.46002,0.41852 0.41010,0.14290 0.30132,-0.12404
C 0.19289,-0.39012 0.03671,-0.62127 -0.12657,-0.75739
C -0.27619,-0.88212 -0.41884,-0.91624 -0.52299,-0.85234
C -0.52883,-0.84876 -0.53474,-0.84504 -0.54072,-0.84120 Z" id="meridian_75.0_back"/>
      <path d="M -0.77368,-0.63358
C -0.68267,-0.74471 -0.54350,-0.79389 -0.37989,-0.77269
C -0.21384,-0.75117 -0.03310,-0.65853 0.13062,-0.51098
C 0.30040,-0.35797 0.44042,-0.15624 0.52441,0.05632
C 0.60539,0.26129 0.62899,0.46301 0.59108,0.62609
C 0.55373,0.78678 0.45900,0.89997 0.32306,0.94638
C 0.33060,0.94380 0.33811,0.94114 0.34559,0.93839
C 0.47825,0.88953 0.56967,0.77533 0.60456,0.61487
C 0.63998,0.45190 0.61489,0.25131 0.53357,0.04766
C 0.44928,-0.16340 0.31018,-0.36379 0.14191,-0.51656
C -0.02045,-0.66395 -0.19960,-0.75760 -0.36467,-0.78139
C -0.52720,-0.80481 -0.66616,-0.75909 -0.75832,-0.65189
C -0.76349,-0.64587 -0.76861,-0.63977 -0.77368,-0.63358 Z" id="meridian_75.0_back"/>
      <path d="M -0.95517,-0.29605
C -0.90161,-0.46887 -0.77265,-0.59643 -0.59310,-0.65417
C -0.41082,-0.71280 -0.18953,-0.69525 0.02695,-0.60496
C 0.24914,-0.51230 0.44943,-0.35005 0.58619,-0.15194
C 0.71944,0.04109 0.78254,0.25391 0.76303,0.44440
C 0.74381,0.63202 0.64580,0.78465 0.48786,0.87292
C 0.49607,0.86833 0.50422,0.86363 0.51230,0.85881
C 0.66509,0.76767 0.75810,0.61442 0.77387,0.42784
C 0.78989,0.23826 0.72503,0.02759 0.59182,-0.16340
C 0.45524,-0.35920 0.25690,-0.51988 0.03701,-0.61284
C -0.17747,-0.70352 -0.39702,-0.72324 -0.57915,-0.66821
C -0.75839,-0.61406 -0.88899,-0.49126 -0.94644,-0.32288
C -0.94948,-0.31398 -0.95239,-0.30504 -0.95517,-0.29605 Z" id="meridian_75.0_back"/>
      <path d="M -0.98817,0.15338
C -1.02004,-0.05196 -0.95521,-0.24881 -0.80750,-0.39518
C -0.65767,-0.54365 -0.43463,-0.62822 -0.18723,-0.63029
C 0.06485,-0.63239 0.32107,-0.54867 0.52327,-0.39813
C 0.72172,-0.25038 0.85179,-0.05044 0.88505,0.15786
C 0.91783,0.36320 0.85392,0.56036 0.70695,0.70726
C 0.71468,0.69953 0.72229,0.69168 0.72976,0.68371
C 0.86947,0.53459 0.92672,0.33814 0.88962,0.13520
C 0.85206,-0.07021 0.72077,-0.26625 0.52360,-0.41121
C 0.32266,-0.55893 0.06962,-0.64161 -0.17978,-0.64103
C -0.42450,-0.64047 -0.64622,-0.55977 -0.79781,-0.41617
C -0.94759,-0.27429 -1.01737,-0.08193 -0.99266,0.12091
C -0.99134,0.13175 -0.98984,0.14258 -0.98817,0.15338 Z" id="meridian_75.0_back"/>
      <path d="M -0.82520,0.56484
C -0.94603,0.38831 -0.97384,0.17681 -0.90252,-0.02340
C -0.83012,-0.22669 -0.66154,-0.40150 -0.43464,-0.50847
C -0.20374,-0.61734 0.06766,-0.64656 0.31644,-0.58934
C 0.56091,-0.53312 0.76284,-0.39820 0.87686,-0.21498
C 0.98916,-0.03454 1.00701,0.17803 0.92652,0.37624
C 0.93080,0.36571 0.93489,0.35511 0.93881,0.34444
C 1.01124,0.14703 0.98713,-0.06204 0.87161,-0.23829
C 0.75460,-0.41681 0.55317,-0.54735 0.31119,-0.60140
C 0.06482,-0.65643 -0.20307,-0.62758 -0.43208,-0.52137
C -0.65701,-0.41705 -0.82603,-0.24663 -0.90236,-0.04729
C -0.97771,0.14951 -0.95676,0.35892 -0.84397,0.53639
C -0.83787,0.54598 -0.83162,0.55547 -0.82520,0.56484 Z" id="meridian_75.0_back"/>
      <path d="M -0.59124,0.80650
C -0.74980,0.69026 -0.83684,0.51423 -0.83455,0.31440
C -0.83224,0.11229 -0.73872,-0.09870 -0.57348,-0.27448
C -0.40444,-0.45428 -0.17388,-0.58285 0.06793,-0.63214
C 0.30433,-0.68032 0.53297,-0.64898 0.70613,-0.54471
C 0.87733,-0.44162 0.98133,-0.27504 0.99687,-0.07905
C 0.99606,-0.08923 0.99510,-0.09940 0.99398,-0.10955
C 0.97280,-0.30173 0.86555,-0.46336 0.69360,-0.56220
C 0.51978,-0.66212 0.29277,-0.69046 0.05874,-0.64137
C -0.18034,-0.59123 -0.40818,-0.46418 -0.57650,-0.28715
C -0.74127,-0.11386 -0.83649,0.09415 -0.84285,0.29454
C -0.84915,0.49278 -0.76802,0.66897 -0.61567,0.78801
C -0.60762,0.79430 -0.59947,0.80046 -0.59124,0.80650 Z" id="meridian_75.0_back"/>
      <path d="M -0.39897,0.91696
C -0.54857,0.85187 -0.64824,0.72043 -0.67993,0.54642
C -0.71207,0.36988 -0.67208,0.16142 -0.56735,-0.04016
C -0.45923,-0.24827 -0.28984,-0.43420 -0.09266,-0.56118
C 0.09832,-0.68417 0.30216,-0.74335 0.48092,-0.72773
C 0.65712,-0.71234 0.79725,-0.62531 0.87595,-0.48240
C 0.87178,-0.48997 0.86752,-0.49748 0.86316,-0.50493
C 0.78211,-0.64349 0.64143,-0.72636 0.46604,-0.73886
C 0.28797,-0.75155 0.08585,-0.69085 -0.10346,-0.56781
C -0.29873,-0.44089 -0.46673,-0.25649 -0.57497,-0.05027
C -0.67990,0.14963 -0.72156,0.35651 -0.69239,0.53264
C -0.66366,0.70611 -0.56808,0.83848 -0.42260,0.90632
C -0.41477,0.90997 -0.40689,0.91352 -0.39897,0.91696 Z" id="meridian_75.0_back"/>
      <path d="M -0.25756,0.96626
C -0.40327,0.92742 -0.49736,0.78911 -0.51756,0.58387
C -0.53951,0.36083 -0.47201,0.08121 -0.33359,-0.17808
C -0.19517,-0.43737 -0.00038,-0.64904 0.19716,-0.75491
C 0.37894,-0.85232 0.54622,-0.85111 0.65957,-0.75164
C 0.65389,-0.75663 0.64826,-0.76145 0.64269,-0.76613
C 0.52861,-0.86183 0.36162,-0.85952 0.18076,-0.75963
C -0.01452,-0.65178 -0.20672,-0.44085 -0.34402,-0.18366
C -0.48133,0.07354 -0.54965,0.35059 -0.53061,0.57286
C -0.51298,0.77871 -0.42199,0.91875 -0.27900,0.96029
C -0.27174,0.96240 -0.26459,0.96439 -0.25756,0.96626 Z" id="meridian_75.0_back"/>
      <path d="M -0.14825,0.98895
C -0.24447,0.97453 -0.30967,0.86292 -0.32978,0.67789
C -0.35185,0.47482 -0.31757,0.20208 -0.23566,-0.07075
C -0.15376,-0.34357 -0.03215,-0.59010 0.09812,-0.74744
C 0.21680,-0.89080 0.33270,-0.94804 0.42096,-0.90708
C 0.41503,-0.90983 0.40898,-0.91257 0.40278,-0.91530
C 0.31546,-0.95372 0.20099,-0.89474 0.08366,-0.75068
C -0.04514,-0.59252 -0.16561,-0.34630 -0.24729,-0.07424
C -0.32896,0.19782 -0.36402,0.46969 -0.34362,0.67263
C -0.32505,0.85749 -0.26199,0.96978 -0.16794,0.98580
C -0.16127,0.98693 -0.15470,0.98798 -0.14825,0.98895 Z" id="meridian_75.0_back"/>
      <path d="M -0.05567,0.99845
C -0.09820,0.99608 -0.12764,0.89709 -0.13786,0.72136
C -0.14899,0.52978 -0.13632,0.26377 -0.10287,-0.01249
C -0.06941,-0.28875 -0.01823,-0.55009 0.03832,-0.73346
C 0.09018,-0.90164 0.14239,-0.99073 0.18425,-0.98288
C 0.17800,-0.98405 0.17184,-0.98514 0.16577,-0.98616
C 0.12638,-0.99279 0.07716,-0.90762 0.02769,-0.74691
C -0.02895,-0.56292 -0.08089,-0.29631 -0.11508,-0.01393
C -0.14928,0.26845 -0.16247,0.53974 -0.15138,0.73194
C -0.14170,0.89981 -0.11423,0.99426 -0.07440,0.99723
C -0.06806,0.99770 -0.06181,0.99811 -0.05567,0.99845 Z" id="meridian_75.0_back"/>
    </g>
    <g id="front" style="opacity:1; fill:url(#LightSpot_front)">
      <path d="M 0.31275,-0.94984
C 0.11413,-1.01523 -0.11413,-1.01523 -0.31275,-0.94984
C -0.33153,-0.94365 -0.35012,-0.93691 -0.36850,-0.92963
C -0.25565,-0.97436 -0.12888,-0.99782 0.00000,-0.99782
C 0.12888,-0.99782 0.25565,-0.97436 0.36850,-0.92963
C 0.35012,-0.93691 0.33153,-0.94365 0.31275,-0.94984 Z" id="parallel_-30.0_front"/>
      <path d="M 0.77775,-0.62857
C 0.67627,-0.75414 0.51276,-0.85111 0.31631,-0.90219
C 0.11259,-0.95515 -0.11259,-0.95515 -0.31630,-0.90219
C -0.51276,-0.85111 -0.67627,-0.75414 -0.77775,-0.62857
C -0.78376,-0.62114 -0.78965,-0.61363 -0.79544,-0.60603
C -0.69561,-0.73707 -0.52904,-0.83901 -0.32676,-0.89285
C -0.11670,-0.94876 0.11671,-0.94876 0.32677,-0.89285
C 0.52905,-0.83901 0.69561,-0.73706 0.79544,-0.60603
C 0.78965,-0.61363 0.78376,-0.62114 0.77775,-0.62857 Z" id="parallel_-15.0_front"/>
      <path d="M 0.95913,-0.28296
C 0.91835,-0.42120 0.80424,-0.54653 0.63564,-0.63818
C 0.45870,-0.73436 0.23319,-0.78723 0.00000,-0.78723
C -0.23319,-0.78723 -0.45870,-0.73436 -0.63564,-0.63818
C -0.80424,-0.54653 -0.91835,-0.42120 -0.95913,-0.28296
C -0.96142,-0.27521 -0.96361,-0.26743 -0.96571,-0.25962
C -0.92806,-0.39967 -0.81471,-0.52728 -0.64478,-0.62081
C -0.46626,-0.71909 -0.23714,-0.77324 -0.00000,-0.77324
C 0.23714,-0.77324 0.46625,-0.71909 0.64478,-0.62082
C 0.81471,-0.52728 0.92806,-0.39967 0.96571,-0.25962
C 0.96362,-0.26740 0.96143,-0.27517 0.95913,-0.28296 Z" id="parallel_0.0_front"/>
      <path d="M 0.99799,0.06345
C 1.00756,-0.08717 0.91365,-0.23397 0.73643,-0.34517
C 0.54728,-0.46385 0.28010,-0.53144 0.00010,-0.53145
C -0.27994,-0.53147 -0.54718,-0.46390 -0.73637,-0.34520
C -0.91363,-0.23400 -1.00756,-0.08719 -0.99799,0.06345
C -0.99752,0.07082 -0.99696,0.07834 -0.99630,0.08599
C -1.00928,-0.06444 -0.91723,-0.21172 -0.74021,-0.32353
C -0.55108,-0.44299 -0.28212,-0.51116 -0.00002,-0.51116
C 0.28208,-0.51117 0.55105,-0.44300 0.74019,-0.32354
C 0.91722,-0.21173 1.00928,-0.06444 0.99630,0.08599
C 0.99696,0.07834 0.99752,0.07082 0.99799,0.06345 Z" id="parallel_15.0_front"/>
      <path d="M 0.92206,0.38705
C 0.96723,0.27943 0.93895,0.16715 0.84188,0.06888
C 0.73798,-0.03631 0.56221,-0.11843 0.34779,-0.16190
C 0.12440,-0.20719 -0.12441,-0.20719 -0.34780,-0.16190
C -0.56221,-0.11843 -0.73799,-0.03631 -0.84189,0.06889
C -0.93895,0.16715 -0.96723,0.27944 -0.92206,0.38705
C -0.91927,0.39368 -0.91636,0.40042 -0.91332,0.40725
C -0.96072,0.30094 -0.93443,0.18958 -0.83884,0.09193
C -0.73649,-0.01265 -0.56159,-0.09446 -0.34760,-0.13781
C -0.12447,-0.18301 0.12445,-0.18301 0.34758,-0.13781
C 0.56158,-0.09446 0.73648,-0.01265 0.83884,0.09192
C 0.93443,0.18958 0.96072,0.30094 0.91332,0.40725
C 0.91625,0.40068 0.91917,0.39394 0.92206,0.38705 Z" id="parallel_30.0_front"/>
      <path d="M 0.74615,0.66578
C 0.82080,0.58212 0.82280,0.48895 0.75178,0.40466
C 0.67582,0.31452 0.52242,0.24174 0.32583,0.20265
C 0.11836,0.16140 -0.11837,0.16140 -0.32583,0.20265
C -0.52242,0.24174 -0.67582,0.31452 -0.75178,0.40466
C -0.82280,0.48895 -0.82080,0.58212 -0.74615,0.66578
C -0.74129,0.67123 -0.73627,0.67673 -0.73109,0.68228
C -0.80743,0.60048 -0.81151,0.50888 -0.74252,0.42581
C -0.66878,0.33701 -0.51755,0.26513 -0.32298,0.22648
C -0.11747,0.18566 0.11747,0.18566 0.32299,0.22649
C 0.51756,0.26513 0.66878,0.33701 0.74252,0.42581
C 0.81151,0.50889 0.80743,0.60048 0.73109,0.68228
C 0.73608,0.67694 0.74110,0.67144 0.74615,0.66578 Z" id="parallel_45.0_front"/>
      <path d="M 0.47377,0.88065
C 0.57176,0.82793 0.60887,0.76135 0.57607,0.69728
C 0.54078,0.62835 0.42820,0.56940 0.26986,0.53708
C 0.10060,0.50253 -0.10061,0.50253 -0.26987,0.53708
C -0.42822,0.56941 -0.54079,0.62835 -0.57608,0.69729
C -0.60887,0.76135 -0.57176,0.82793 -0.47377,0.88065
C -0.46637,0.88463 -0.45891,0.88852 -0.45141,0.89232
C -0.55107,0.84190 -0.59108,0.77723 -0.56151,0.71456
C -0.52965,0.64704 -0.42044,0.58895 -0.26512,0.55704
C -0.09909,0.52293 0.09912,0.52293 0.26515,0.55704
C 0.42046,0.58895 0.52967,0.64705 0.56151,0.71457
C 0.59108,0.77723 0.55106,0.84190 0.45141,0.89232
C 0.45891,0.88852 0.46636,0.88463 0.47377,0.88065 Z" id="parallel_60.0_front"/>
      <path d="M 0.01883,0.99868
C 0.13299,0.99623 0.23438,0.97172 0.28366,0.93473
C 0.32904,0.90067 0.32394,0.86071 0.27004,0.82828
C 0.20928,0.79172 0.09628,0.77053 -0.02213,0.77352
C -0.13655,0.77642 -0.23747,0.80145 -0.28549,0.83880
C -0.32921,0.87279 -0.32307,0.91238 -0.26907,0.94443
C -0.20867,0.98028 -0.09780,1.00120 0.01883,0.99868 Z
M 0.01775,0.99763
C -0.09129,0.99998 -0.19501,0.98059 -0.25178,0.94728
C -0.30275,0.91738 -0.30877,0.88039 -0.26788,0.84859
C -0.22291,0.81360 -0.12801,0.79015 -0.02041,0.78749
C 0.09091,0.78473 0.19703,0.80466 0.25377,0.83895
C 0.30378,0.86918 0.30831,0.90632 0.26590,0.93798
C 0.21969,0.97247 0.12470,0.99532 0.01775,0.99763 Z" id="parallel_75.0_front"/>
      <path d="M 0.01224,0.99993
C -0.00726,1.00016 -0.03218,0.83216 -0.05410,0.55200
C -0.08012,0.21944 -0.09735,-0.21223 -0.09791,-0.54582
C -0.09838,-0.82691 -0.08692,-0.99641 -0.06747,-0.99772
C -0.06140,-0.99813 -0.05523,-0.99849 -0.04896,-0.99880
C -0.06638,-0.99795 -0.07594,-0.82873 -0.07435,-0.54768
C -0.07246,-0.21375 -0.05520,0.21874 -0.03048,0.55178
C -0.00967,0.83211 0.01334,1.00006 0.03077,0.99953
C 0.02450,0.99972 0.01832,0.99985 0.01224,0.99993 Z" id="meridian_75.0_front"/>
      <path d="M 0.10061,0.99493
C 0.03535,1.00152 -0.04461,0.92303 -0.12458,0.77367
C -0.21731,0.60049 -0.30218,0.34678 -0.35853,0.07407
C -0.41488,-0.19863 -0.43752,-0.46519 -0.42104,-0.66093
C -0.40682,-0.82974 -0.36451,-0.93350 -0.30199,-0.95331
C -0.29598,-0.95521 -0.28985,-0.95709 -0.28360,-0.95894
C -0.34533,-0.94069 -0.38687,-0.83785 -0.40048,-0.66924
C -0.41630,-0.47319 -0.39303,-0.20505 -0.33629,0.06951
C -0.27955,0.34406 -0.19464,0.59946 -0.10240,0.77317
C -0.02308,0.92257 0.05582,1.00051 0.11972,0.99281
C 0.11325,0.99359 0.10688,0.99429 0.10061,0.99493 Z" id="meridian_75.0_front"/>
      <path d="M 0.19999,0.97980
C 0.09119,1.00201 -0.04264,0.94416 -0.17723,0.81664
C -0.32416,0.67744 -0.46085,0.46579 -0.55799,0.22697
C -0.65513,-0.01185 -0.70500,-0.25882 -0.69695,-0.46106
C -0.68959,-0.64632 -0.63413,-0.78116 -0.54072,-0.84120
C -0.53474,-0.84504 -0.52883,-0.84876 -0.52299,-0.85234
C -0.61725,-0.79450 -0.67335,-0.66036 -0.68090,-0.47448
C -0.68915,-0.27117 -0.63871,-0.02165 -0.54048,0.21984
C -0.44225,0.46134 -0.30419,0.67523 -0.15636,0.81505
C -0.02121,0.94289 0.11259,0.99978 0.22047,0.97539
C 0.21354,0.97696 0.20671,0.97843 0.19999,0.97980 Z" id="meridian_75.0_front"/>
      <path d="M 0.32306,0.94638
C 0.18849,0.99231 0.02169,0.97003 -0.14946,0.88319
C -0.32944,0.79186 -0.50242,0.63515 -0.63657,0.44189
C -0.77073,0.24863 -0.85707,0.03177 -0.87970,-0.16879
C -0.90122,-0.35950 -0.86377,-0.52356 -0.77368,-0.63358
C -0.76863,-0.63974 -0.76351,-0.64584 -0.75832,-0.65189
C -0.85151,-0.54348 -0.89112,-0.37885 -0.87034,-0.18610
C -0.84845,0.01683 -0.76110,0.23726 -0.62475,0.43368
C -0.48841,0.63010 -0.31243,0.78901 -0.12996,0.88047
C 0.04335,0.96734 0.21144,0.98779 0.34559,0.93839
C 0.33808,0.94115 0.33057,0.94382 0.32306,0.94638 Z" id="meridian_75.0_front"/>
      <path d="M 0.48786,0.87292
C 0.30452,0.97539 0.05674,0.98211 -0.19264,0.89131
C -0.45160,0.79702 -0.68593,0.60719 -0.83192,0.37344
C -0.97250,0.14835 -1.01735,-0.09544 -0.95517,-0.29605
C -0.95239,-0.30504 -0.94948,-0.31398 -0.94644,-0.32288
C -0.99726,-0.17393 -0.98791,0.00223 -0.91975,0.17936
C -0.84869,0.36403 -0.71777,0.53920 -0.54812,0.67663
C -0.37847,0.81406 -0.17994,0.90577 0.01546,0.93695
C 0.20287,0.96686 0.37713,0.93944 0.51230,0.85881
C 0.50422,0.86363 0.49607,0.86833 0.48786,0.87292 Z" id="meridian_75.0_front"/>
      <path d="M 0.70695,0.70726
C 0.55786,0.85629 0.33531,0.94159 0.08807,0.94443
C -0.16630,0.94736 -0.42516,0.86277 -0.62872,0.71022
C -0.82659,0.56194 -0.95583,0.36169 -0.98817,0.15338
C -0.98984,0.14258 -0.99134,0.13175 -0.99266,0.12091
C -0.96661,0.33479 -0.83770,0.54256 -0.63545,0.69653
C -0.42726,0.85503 -0.16003,0.94235 0.10157,0.93735
C 0.35572,0.93251 0.58244,0.84094 0.72976,0.68371
C 0.72229,0.69168 0.71468,0.69953 0.70695,0.70726 Z" id="meridian_75.0_front"/>
      <path d="M 0.92652,0.37624
C 0.84769,0.57037 0.68069,0.73549 0.46065,0.83683
C 0.23465,0.94091 -0.02899,0.96930 -0.27197,0.91571
C -0.50854,0.86353 -0.70685,0.73774 -0.82520,0.56484
C -0.83162,0.55547 -0.83787,0.54598 -0.84397,0.53639
C -0.72885,0.71752 -0.52741,0.85069 -0.28414,0.90644
C -0.03417,0.96372 0.23853,0.93436 0.47058,0.82518
C 0.69640,0.71893 0.86488,0.54593 0.93881,0.34444
C 0.93489,0.35511 0.93080,0.36571 0.92652,0.37624 Z" id="meridian_75.0_front"/>
      <path d="M 0.99687,-0.07905
C 1.01361,0.13200 0.92639,0.35937 0.75563,0.54969
C 0.57934,0.74619 0.33028,0.88507 0.07045,0.93176
C -0.18122,0.97699 -0.42049,0.93167 -0.59124,0.80650
C -0.59947,0.80046 -0.60762,0.79430 -0.61567,0.78801
C -0.44575,0.92076 -0.20197,0.97097 0.05616,0.92632
C 0.32284,0.88019 0.57910,0.73730 0.75852,0.53467
C 0.93218,0.33854 1.01760,0.10478 0.99398,-0.10955
C 0.99510,-0.09940 0.99606,-0.08923 0.99687,-0.07905 Z" id="meridian_75.0_front"/>
      <path d="M 0.87595,-0.48240
C 0.94881,-0.35011 0.96474,-0.17766 0.92121,0.00796
C 0.87587,0.20131 0.76875,0.39732 0.61799,0.56283
C 0.46719,0.72839 0.28194,0.85332 0.09358,0.91646
C -0.08724,0.97707 -0.26046,0.97723 -0.39897,0.91696
C -0.40689,0.91352 -0.41477,0.90997 -0.42260,0.90632
C -0.28439,0.97076 -0.10936,0.97312 0.07437,0.91297
C 0.26595,0.85024 0.45508,0.72345 0.60883,0.55469
C 0.76259,0.38593 0.87127,0.18585 0.91593,-0.01073
C 0.95876,-0.19925 0.94016,-0.37331 0.86316,-0.50493
C 0.86752,-0.49748 0.87178,-0.48997 0.87595,-0.48240 Z" id="meridian_75.0_front"/>
      <path d="M 0.65957,-0.75164
C 0.75650,-0.66659 0.80723,-0.51555 0.80278,-0.32510
C 0.79803,-0.12213 0.73096,0.11120 0.61490,0.32852
C 0.49889,0.54577 0.34238,0.73120 0.17643,0.84800
C 0.02069,0.95762 -0.13299,0.99947 -0.25756,0.96626
C -0.26459,0.96439 -0.27174,0.96240 -0.27900,0.96029
C -0.15519,0.99626 -0.00104,0.95584 0.15591,0.84616
C 0.32373,0.72889 0.48260,0.54096 0.60030,0.32049
C 0.71801,0.10002 0.78577,-0.13655 0.78984,-0.34125
C 0.79364,-0.53269 0.74146,-0.68327 0.64269,-0.76613
C 0.64826,-0.76145 0.65389,-0.75663 0.65957,-0.75164 Z" id="meridian_75.0_front"/>
      <path d="M 0.42096,-0.90708
C 0.50237,-0.86930 0.55459,-0.75056 0.56793,-0.57264
C 0.58287,-0.37330 0.54779,-0.11572 0.47064,0.14127
C 0.39348,0.39830 0.28087,0.63263 0.15860,0.79079
C 0.04948,0.93193 -0.05950,1.00225 -0.14825,0.98895
C -0.15470,0.98798 -0.16127,0.98693 -0.16794,0.98580
C -0.08035,1.00072 0.02801,0.93109 0.13702,0.78971
C 0.25944,0.63091 0.37270,0.39457 0.45055,0.13526
C 0.52840,-0.12404 0.56404,-0.38369 0.54932,-0.58366
C 0.53621,-0.76170 0.48411,-0.87951 0.40278,-0.91530
C 0.40898,-0.91257 0.41503,-0.90983 0.42096,-0.90708 Z" id="meridian_75.0_front"/>
      <path d="M 0.18425,-0.98288
C 0.22611,-0.97503 0.25452,-0.87086 0.26364,-0.69163
C 0.27383,-0.49152 0.25908,-0.21577 0.22304,0.06634
C 0.18783,0.34205 0.13553,0.59841 0.07878,0.77359
C 0.03098,0.92114 -0.01661,1.00063 -0.05567,0.99845
C -0.06202,0.99810 -0.06826,0.99769 -0.07440,0.99723
C -0.03605,1.00009 0.01125,0.91794 0.05894,0.76536
C 0.11645,0.58132 0.16939,0.31130 0.20409,0.02475
C 0.23879,-0.26181 0.25183,-0.53668 0.23991,-0.72914
C 0.23003,-0.88871 0.20370,-0.97979 0.16577,-0.98616
C 0.17204,-0.98511 0.17820,-0.98401 0.18425,-0.98288 Z" id="meridian_75.0_front"/>
    </g>
  </g>
</svg>
